<?xml version="1.0" encoding="utf-8"?>
<!-- Generator: Adobe Illustrator 24.0.1, SVG Export Plug-In . SVG Version: 6.00 Build 0)  -->
<svg version="1.1" id="Layer_1" xmlns="http://www.w3.org/2000/svg" xmlns:xlink="http://www.w3.org/1999/xlink" x="0px" y="0px"
	 viewBox="0 0 512 512" style="enable-background:new 0 0 512 512;" xml:space="preserve">
<style type="text/css">
	.st0{fill:#384357;}
	.st1{fill:#394357;}
	.st2{fill:#C7B46F;}
</style>
<path class="st0" d="M512.21,286.8c-0.75-0.73-1.28-1.63-1.93-2.44c-0.38-0.47,0.06-0.63,0.28-0.81c0.52-0.42,1.1-0.77,1.65-1.15
	C512.21,283.87,512.21,285.34,512.21,286.8z"/>
<path class="st1" d="M248.75,268.39c-2.96-2.78-5.85-5.58-8.78-8.34c-2.15-2.03-4.16-4.22-6.37-6.17c-2.04-1.8-3.88-3.8-5.84-5.67
	c-6.27-5.97-12.39-12.07-18.44-18.26c-2.85-2.92-5.66-5.86-8.58-8.71c-3.49-3.41-7.3-6.41-11.78-8.46c-3.27-1.5-6.66-2.5-10.25-2.9
	c-2.02-0.23-4.04-0.26-6.03-0.13c-3.85,0.25-7.6,1.19-11.2,2.57c-5.55,2.14-10.28,5.5-14.17,9.98c-3.24,3.74-5.59,8.03-7.03,12.78
	c-0.84,2.79-1.32,5.62-1.51,8.55c-0.45,7,1.25,13.45,4.57,19.54c1.39,2.56,3.17,4.85,5,7.09c3.95,4.81,8.27,9.27,12.76,13.56
	c3.39,3.25,6.72,6.56,10.18,9.72c3.91,3.58,7.45,7.51,11.14,11.29c4.27,4.36,8.53,8.73,12.92,12.96c3.34,3.22,6.53,6.59,9.92,9.75
	c2.91,2.71,5.62,5.61,8.54,8.3c2.05,1.89,3.94,3.93,5.99,5.82c3.65,3.38,7.18,6.88,10.77,10.32c2.99,2.86,6.01,5.68,8.98,8.55
	c0.95,0.91,1.92,1.8,2.88,2.7c0.47,0.44,0.48,0.8-0.02,1.19c-0.03,0.02-0.05,0.05-0.07,0.07c-4.03,4.1-8.11,8.16-12.09,12.31
	c-3.79,3.95-7.66,7.82-11.51,11.7c-0.46,0.46-0.86,0.99-1.28,1.48c-0.33,0.38-0.65,0.48-1.04,0.06c-2.68-2.83-5.65-5.39-8.17-8.38
	c-0.18-0.21-0.39-0.4-0.59-0.6c-14.03-14.03-28.13-27.99-42.07-42.11c-5.86-5.93-11.67-11.92-17.65-17.72
	c-5.08-4.93-9.97-10.06-15.12-14.91c-2.51-2.37-4.97-4.78-7.37-7.25c-3.47-3.57-6.64-7.4-9.52-11.48
	c-2.26-3.21-4.31-6.54-6.03-10.05c-2.76-5.63-4.83-11.49-5.92-17.69c-0.44-2.5-0.79-4.99-1.04-7.51c-0.29-2.9-0.5-5.8-0.38-8.71
	c0.12-2.88,0.38-5.75,0.78-8.62c0.7-5.11,2.06-10.04,3.82-14.87c1.53-4.2,3.53-8.17,5.84-11.98c3.46-5.72,7.72-10.8,12.63-15.32
	c3.4-3.13,7.12-5.87,11.06-8.28c5.3-3.25,10.94-5.72,16.88-7.54c3.78-1.16,7.61-2.04,11.54-2.55c2.08-0.27,4.17-0.44,6.25-0.65
	c1.95-0.2,3.89-0.16,5.83-0.15c3.16,0.02,6.29,0.49,9.41,0.99c4.48,0.72,8.82,1.91,13.09,3.4c6.08,2.12,11.67,5.15,16.82,9.01
	c3.78,2.84,7.32,5.95,10.74,9.21c2.07,1.97,4.17,3.91,6.1,6c3.92,4.22,8.18,8.1,12.1,12.3c2,2.14,4.13,4.14,6.12,6.28
	c3.05,3.29,6.19,6.49,9.29,9.73c2.37,2.48,4.75,4.97,7.07,7.5c1.44,1.59,3.07,3.01,4.38,4.71c0.29,0.37,0.26,0.54-0.04,0.84
	c-1.18,1.22-2.34,2.47-3.51,3.7c-2.95,3.09-5.94,6.15-8.85,9.28c-2.41,2.6-4.86,5.15-7.29,7.73
	C251.34,265.7,250.07,267.02,248.75,268.39z M41.89,318.01c-2.76-0.01-3.77-1.16-3.94-3.88c-0.11-1.87,0-3.74-0.16-5.62
	c-0.2-2.41-0.26-4.83-0.46-7.24c-0.22-2.65-0.22-5.32-0.47-7.97c-0.11-1.21-0.1-2.42-0.19-3.62c-0.25-3.54-0.59-7.07-0.81-10.61
	c-0.13-2.03-0.29-4.06-0.4-6.09c-0.19-3.27-0.46-6.54-0.64-9.81c-0.11-1.96-0.31-3.92-0.41-5.88c-0.17-3.28-0.45-6.54-0.64-9.81
	c-0.12-2.07-0.29-4.13-0.42-6.19c-0.2-3.27-0.41-6.54-0.63-9.82c-0.15-2.17-0.29-4.34-0.42-6.51c-0.21-3.45-0.41-6.89-0.64-10.34
	c-0.15-2.27-0.29-4.55-0.41-6.82c-0.19-3.8-0.42-7.59-0.65-11.39c-0.13-2.27-0.3-4.55-0.4-6.82c-0.12-2.97-0.39-5.94-0.43-8.92
	c-0.01-0.81-0.24-0.96-0.99-0.95c-4.93,0.03-9.85,0.05-14.78-0.01c-0.97-0.01-1.26,0.17-1.26,1.22c0.03,32.65-0.03,65.3,0.04,97.95
	c0.05,26.07-0.25,52.14,0.17,78.21c0.2,12.03-0.09,24.06,0.2,36.1c0.23,9.86-0.14,19.74,0.22,29.6c0.02,0.67,0.17,0.89,0.86,0.87
	c1.64-0.05,3.28-0.02,4.93-0.02c3.04,0,6.08,0.01,9.12-0.01c0.31,0,0.79,0.26,0.84-0.43c0.11-1.51,0.25-3.01,0.42-4.52
	c0.15-1.43,0.27-2.88,0.46-4.3c0.32-2.31,0.5-4.63,0.77-6.94c0.2-1.64,0.28-3.3,0.49-4.93c0.3-2.35,0.51-4.7,0.75-7.05
	c0.19-1.81,0.33-3.64,0.5-5.45c0.27-3.01,0.52-6.03,0.8-9.04c0.16-1.75,0.28-3.5,0.45-5.25c0.29-2.91,0.54-5.81,0.81-8.72
	c0.16-1.78,0.27-3.58,0.46-5.35c0.3-2.87,0.5-5.75,0.79-8.62c0.17-1.75,0.19-3.52,0.46-5.24c0.28-1.75,1.22-2.32,2.9-2.32
	c21.94,0.03,43.88,0.02,65.83,0.02c0.17,0,0.35,0,0.52,0c1.33,0.03,2.1,0.48,2.39,1.76c0.33,1.49,0.47,3.03,0.66,4.56
	c0.24,1.9,0.43,3.81,0.68,5.72c0.24,1.9,0.55,3.79,0.79,5.68c0.24,1.87,0.43,3.74,0.67,5.61c0.25,1.97,0.54,3.93,0.8,5.89
	c0.24,1.83,0.46,3.67,0.7,5.5c0.25,1.86,0.53,3.72,0.76,5.59c0.24,1.87,0.41,3.75,0.65,5.62c0.32,2.51,0.69,5.01,1.03,7.52
	c0.23,1.76,0.43,3.54,0.66,5.3c0.33,2.47,0.69,4.94,1.02,7.41c0.24,1.8,0.44,3.6,0.68,5.4c0.25,1.9,0.58,3.78,0.76,5.69
	c0.07,0.75,0.31,0.94,1.01,0.93c2.83-0.03,5.66-0.04,8.49,0.01c0.81,0.01,1.05-0.19,1.03-1.02c-0.16-7.39,0.21-14.78-0.21-22.16
	c-0.13-2.23-0.03-4.47-0.02-6.7c0.13-17.72-0.24-35.45,0.18-53.17c0.14-6.04,0.06-12.08-0.01-18.12c-0.02-1.54-0.13-3.2-1.81-4.06
	c-0.9-0.46-1.89-0.58-2.87-0.58c-3.65,0.02-7.31,0.1-10.96,0.14c-11.74,0.14-23.48,0.05-35.22,0.05
	C65.58,318.02,53.73,318.04,41.89,318.01z M192.24,157.07c5.01-1.43,9.5-3.9,13.38-7.38c3.77-3.38,6.72-7.38,8.76-12.05
	c1.55-3.56,2.47-7.28,2.8-11.12c0.24-2.76,0.07-5.55-0.42-8.28c-0.83-4.63-2.16-9.11-4.6-13.19c-2.48-4.15-5.66-7.65-9.66-10.41
	c-5.28-3.64-11.2-5.34-17.51-5.84c-2.81-0.22-5.63,0-8.39,0.45c-4.09,0.68-8.04,1.89-11.7,3.95c-5.76,3.24-10.1,7.82-13.1,13.67
	c-1.93,3.75-3.04,7.74-3.6,11.93c-0.45,3.32-0.59,6.63-0.13,9.92c0.6,4.36,1.94,8.52,4.18,12.36c2.64,4.51,6.04,8.31,10.38,11.25
	c6,4.06,12.6,6.12,20.44,6.04C185.82,158.53,189.07,157.97,192.24,157.07z"/>
<path class="st2" d="M328.88,172.79c6.93,0.14,14.17,1.15,21.28,3.26c7.62,2.27,14.66,5.68,21.19,10.19
	c2.47,1.71,4.78,3.64,7.03,5.64c4.65,4.12,8.54,8.86,11.93,14.04c2.9,4.44,5.18,9.18,7.03,14.16c1.63,4.41,2.73,8.95,3.49,13.57
	c0.43,2.62,0.79,5.27,0.68,7.95c-0.03,0.9,0.27,1.77,0.22,2.69c-0.24,4-0.43,8-1.01,11.98c-1.2,8.3-3.92,16.06-7.93,23.38
	c-2.32,4.24-5.09,8.2-8.14,11.96c-3.38,4.17-7.05,8.07-10.96,11.73c-4.56,4.27-8.82,8.85-13.35,13.15
	c-8.06,7.65-15.86,15.55-23.63,23.48c-14.64,14.94-29.64,29.52-44.28,44.46c-7.38,7.53-14.96,14.86-22.26,22.46
	c-3.77,3.93-7.67,7.72-11.47,11.62c-1.91,1.96-3.34,1.76-5.26-0.44c-0.23-0.26-0.47-0.51-0.72-0.76
	c-7.31-7.31-14.62-14.63-21.96-21.91c-0.69-0.69-0.79-1.03-0.03-1.77c4.81-4.73,9.64-9.44,14.31-14.29
	c8.06-8.38,16.38-16.5,24.6-24.72c2.32-2.31,4.66-4.61,7.04-6.85c3.4-3.2,6.74-6.45,10.11-9.68c3.35-3.2,6.67-6.42,10.05-9.6
	c1.83-1.72,3.53-3.57,5.41-5.23c3.14-2.78,5.9-5.95,8.99-8.76c2.9-2.63,5.64-5.41,8.34-8.22c2.61-2.72,5.34-5.32,7.88-8.09
	c1.63-1.77,3.29-3.51,5.04-5.16c3.36-3.18,6.67-6.43,10.05-9.6c2.22-2.07,4.41-4.17,6.49-6.37c3.91-4.16,7.83-8.32,10.9-13.17
	c2.64-4.16,4.3-8.68,5.12-13.55c0.48-2.88,0.54-5.77,0.33-8.63c-0.29-3.96-1.31-7.8-2.95-11.45c-2.01-4.48-4.76-8.43-8.39-11.74
	c-3.32-3.03-7.08-5.36-11.29-7.01c-2.97-1.16-6.03-1.97-9.17-2.41c-3.06-0.43-6.13-0.4-9.22,0.08c-3.7,0.57-7.18,1.68-10.47,3.41
	c-3.07,1.61-5.86,3.62-8.44,5.97c-4.47,4.07-8.58,8.49-12.9,12.71c-0.79,0.77-1.48,1.66-2.26,2.45c-1.9,1.92-3.58,1.96-5.59,0.14
	c-0.31-0.28-0.59-0.59-0.89-0.89c-5.09-5.02-10.14-10.09-15.31-15.04c-1.71-1.64-3.41-3.29-5.1-4.95c-1.26-1.24-1.25-2.67-0.01-3.92
	c4.23-4.3,8.39-8.69,12.72-12.88c4.7-4.55,9.59-8.89,15.12-12.45c5.23-3.37,10.82-5.89,16.79-7.66c3.31-0.98,6.65-1.8,10.03-2.39
	c2.1-0.37,4.24-0.6,6.38-0.73C325.78,172.9,327.1,172.84,328.88,172.79z M495.04,177.97c0-0.97-0.26-1.21-1.21-1.2
	c-4.54,0.05-9.08,0.02-13.63,0.02c-2.02,0-2.02,0-2.18,1.98c-0.03,0.38-0.19,0.74-0.19,1.12c-0.02,2.53-0.27,5.05-0.4,7.58
	c-0.19,3.7-0.39,7.4-0.63,11.11c-0.15,2.42-0.29,4.84-0.42,7.26c-0.19,3.53-0.41,7.05-0.63,10.58c-0.21,3.25-0.41,6.5-0.62,9.74
	c-0.21,3.32-0.42,6.63-0.64,9.95c-0.21,3.18-0.4,6.36-0.62,9.53c-0.22,3.14-0.42,6.29-0.63,9.43c-0.22,3.25-0.41,6.5-0.63,9.74
	c-0.22,3.11-0.42,6.22-0.63,9.32c-0.22,3.25-0.42,6.49-0.63,9.74c-0.2,3.11-0.42,6.22-0.62,9.32c-0.21,3.11-0.46,6.22-0.62,9.32
	c-0.14,2.78-0.34,5.55-0.27,8.34c0.08,2.97-1.23,4.21-4.23,4.21c-22.36,0-44.72,0.01-67.09-0.01c-1.77,0-3.55-0.09-5.31-0.14
	c-3.55-0.1-7.11-0.3-10.65,0.14c-1.44,0.18-2.58,1.09-2.8,2.5c-0.13,0.81-0.29,1.63-0.28,2.47c0.13,7.81,0.11,15.62,0.16,23.43
	c0.11,18.14,0.24,36.29-0.12,54.44c-0.14,7.16-0.02,14.32-0.02,21.48c0,0.24,0.01,0.49,0,0.73c-0.02,0.39,0.13,0.57,0.54,0.57
	c3.07-0.01,6.15-0.01,9.22,0c0.4,0,0.66-0.14,0.71-0.58c0.13-1.23,0.27-2.47,0.43-3.7c0.3-2.32,0.6-4.65,0.91-6.97
	c0.32-2.35,0.66-4.7,0.97-7.06c0.31-2.43,0.56-4.86,0.88-7.29c0.39-2.97,0.82-5.93,1.22-8.9c0.25-1.88,0.46-3.76,0.7-5.64
	c0.32-2.46,0.66-4.92,0.98-7.37c0.24-1.88,0.46-3.76,0.71-5.64c0.31-2.36,0.66-4.71,0.96-7.06c0.31-2.43,0.57-4.86,0.88-7.29
	c0.32-2.53,0.76-5.04,0.99-7.58c0.21-2.3,0.91-3.07,3.24-3.07c21.87,0,43.75,0.02,65.62-0.03c2.15,0,2.92,0.95,3.08,3
	c0.15,1.86,0.28,3.73,0.44,5.59c0.26,2.92,0.55,5.84,0.81,8.77c0.16,1.83,0.28,3.66,0.45,5.48c0.26,2.89,0.55,5.77,0.81,8.66
	c0.17,1.86,0.35,3.72,0.47,5.58c0.18,2.79,0.53,5.56,0.79,8.35c0.16,1.69,0.27,3.38,0.45,5.06c0.32,3.02,0.7,6.03,1.02,9.04
	c0.25,2.34,0.4,4.68,0.65,7.02c0.39,3.67,0.84,7.33,1.23,11c0.05,0.5,0.21,0.65,0.69,0.65c4.79-0.01,9.57-0.02,14.36,0
	c0.57,0,0.71-0.22,0.7-0.74c-0.09-2.44,0.15-4.87,0.19-7.3c0.17-9.28-0.07-18.55,0.18-27.83c0.32-11.72,0.11-23.44,0.19-35.16
	c0.2-28.49,0.06-56.99,0.06-85.48C495.02,235.45,495.01,206.71,495.04,177.97z M316.33,86.24c-3.58,0.56-7,1.59-10.21,3.2
	c-3.6,1.81-6.8,4.18-9.51,7.23c-2.53,2.85-4.58,5.98-5.98,9.51c-2.21,5.58-3.24,11.36-2.8,17.41c0.27,3.73,1.06,7.3,2.51,10.71
	c2.35,5.51,5.88,10.13,10.65,13.83c6.21,4.82,13.31,7,21.05,7.27c2.38,0.08,4.78-0.18,7.12-0.65c6.36-1.29,11.98-4.12,16.79-8.47
	c3.13-2.84,5.67-6.17,7.54-9.96c3.01-6.08,4.21-12.47,3.38-19.25c-0.47-3.86-1.38-7.57-2.87-11.16c-3.08-7.4-8.21-12.91-15.32-16.52
	c-5.01-2.54-10.36-3.79-15.88-3.52C320.54,85.83,318.44,85.91,316.33,86.24z"/>
</svg>
